<svg id="Group_142500" data-name="Group 142500" xmlns="http://www.w3.org/2000/svg" xmlns:xlink="http://www.w3.org/1999/xlink" width="85.136" height="85.136" viewBox="0 0 85.136 85.136">
  <defs>
    <radialGradient id="radial-gradient" cx="0.076" cy="0.019" r="1.465" gradientTransform="translate(0.001)" gradientUnits="objectBoundingBox">
      <stop offset="0" stop-color="#f6f6f7"/>
      <stop offset="0.477" stop-color="#f9f9fa"/>
      <stop offset="0.715" stop-color="#fff"/>
    </radialGradient>
  </defs>
  <g id="Group_18423" data-name="Group 18423" transform="translate(0 0)">
    <g id="Group_18421" data-name="Group 18421">
      <g id="Group_18420" data-name="Group 18420">
        <g id="Group_18419" data-name="Group 18419">
          <path id="Path_40936" data-name="Path 40936" d="M279.759,2188.288a42.568,42.568,0,1,1-42.567-42.567A42.567,42.567,0,0,1,279.759,2188.288Z" transform="translate(-194.623 -2145.721)" fill="#fff"/>
        </g>
      </g>
    </g>
    <path id="Path_40937" data-name="Path 40937" d="M279.526,2188.033a42.567,42.567,0,1,0-42.567,42.569A42.4,42.4,0,0,0,279.526,2188.033Z" transform="translate(-194.389 -2145.467)" fill="url(#radial-gradient)"/>
    <path id="Path_40938" data-name="Path 40938" d="M267.443,2186.041a32.492,32.492,0,1,0-32.492,32.492A32.37,32.37,0,0,0,267.443,2186.041Z" transform="translate(-192.254 -2143.332)" fill="none" stroke="#1d272b" stroke-miterlimit="10" stroke-width="4"/>
    <g id="Group_18422" data-name="Group 18422" transform="translate(7.541 23.899)">
      <path id="Path_40939" data-name="Path 40939" d="M273.836,2164.488a42.573,42.573,0,0,1-73.291,42.392,42.438,42.438,0,0,0,73.291-42.392Z" transform="translate(-200.545 -2164.488)" fill="#eceef0"/>
    </g>
  </g>
  <g id="RpRrNg" transform="translate(796.561 1027.81)">
    <g id="Group_142568" data-name="Group 142568" transform="translate(-776.467 -1008.626)">
      <path id="Path_183781" data-name="Path 183781" d="M-737.544-984.126c-.7,4.905-1.01,5.658-3.926,9.577l2.889,2.757a2.445,2.445,0,0,1,2.709.29,2.459,2.459,0,0,1,.581,3.21,2.5,2.5,0,0,1-3.109,1,2.38,2.38,0,0,1-1.388-2.935,1.046,1.046,0,0,0-.385-1.345c-.673-.629-1.31-1.3-1.964-1.946a2.594,2.594,0,0,0-.233-.169,15.226,15.226,0,0,1-9.669,3.948c0,1.261-.016,2.5.021,3.731,0,.153.272.338.455.438a2.466,2.466,0,0,1,1.392,2.878,2.466,2.466,0,0,1-2.41,1.881,2.49,2.49,0,0,1-2.4-1.91,2.515,2.515,0,0,1,1.435-2.865.855.855,0,0,0,.43-.546c.043-1.009.023-2.021.018-3.032,0-.173-.035-.346-.06-.57a15.265,15.265,0,0,1-9.712-4.058c-.859.89-1.7,1.729-2.489,2.609a.872.872,0,0,0-.039.694,2.508,2.508,0,0,1-1.026,3.032,2.368,2.368,0,0,1-3.016-.367,2.354,2.354,0,0,1-.409-3.007,2.5,2.5,0,0,1,3.018-1.068,1.063,1.063,0,0,0,.754-.105,4.532,4.532,0,0,0,.708-.673c.6-.57,1.212-1.135,1.86-1.74a14.579,14.579,0,0,1-4.017-9.772c-1.316,0-2.552-.016-3.786.022-.145,0-.314.293-.414.48a2.466,2.466,0,0,1-2.81,1.379,2.462,2.462,0,0,1-1.934-2.368,2.487,2.487,0,0,1,1.937-2.462,2.522,2.522,0,0,1,2.814,1.389,1.019,1.019,0,0,0,.594.482,8.324,8.324,0,0,0,1.42.064c.679.007,1.358,0,2.143,0a14.827,14.827,0,0,1,4.011-9.863c-.848-.822-1.643-1.618-2.475-2.375a.834.834,0,0,0-.672-.14,2.521,2.521,0,0,1-3.167-1.06,2.381,2.381,0,0,1,.512-3.068,2.387,2.387,0,0,1,3.036-.207,2.518,2.518,0,0,1,.778,3.288l2.81,2.737a15.085,15.085,0,0,1,9.642-3.935c0-1.216.037-2.345-.03-3.469-.014-.236-.382-.505-.644-.661a2.494,2.494,0,0,1-1.172-2.905,2.463,2.463,0,0,1,2.589-1.753,2.491,2.491,0,0,1,2.242,2.189,2.375,2.375,0,0,1-1.372,2.48.841.841,0,0,0-.557.942c.027,1.036.009,2.073.009,3.183a15.084,15.084,0,0,1,9.687,4l2.7-2.746a7.767,7.767,0,0,1-.249-1.311,2.371,2.371,0,0,1,1.7-2.345,2.424,2.424,0,0,1,2.762.9,2.427,2.427,0,0,1,.049,2.837,2.341,2.341,0,0,1-2.724.983,1.017,1.017,0,0,0-1.285.328c-.7.72-1.464,1.383-2.217,2.084a15.052,15.052,0,0,1,3.748,7.267c.129.667.1,1.365.257,2.024a.933.933,0,0,0,.65.586,22.336,22.336,0,0,0,2.937-.05c.227-.019.493-.331.628-.571a2.5,2.5,0,0,1,2.862-1.278,2.482,2.482,0,0,1,1.843,2.532,2.493,2.493,0,0,1-2.2,2.328,2.575,2.575,0,0,1-2.516-1.352,1.265,1.265,0,0,0-.825-.542,24.705,24.705,0,0,0-2.492-.064A8.125,8.125,0,0,0-737.544-984.126Zm-29.078-1.006a14.092,14.092,0,0,0,13.2,14.347c8.107.308,14.806-5.682,14.891-13.748a13.914,13.914,0,0,0-13.227-14.254A14.031,14.031,0,0,0-766.621-985.132Zm35.508,1.848a1.463,1.463,0,0,0,1.4-1.448,1.432,1.432,0,0,0-1.512-1.411,1.422,1.422,0,0,0-1.348,1.48A1.445,1.445,0,0,0-731.114-983.284Zm-35.171-16.55a1.425,1.425,0,0,0-1.441-1.465,1.417,1.417,0,0,0-1.419,1.4,1.43,1.43,0,0,0,1.354,1.462A1.4,1.4,0,0,0-766.284-999.834Zm13.708,37.971a1.463,1.463,0,0,0,1.445-1.4,1.443,1.443,0,0,0-1.471-1.457,1.417,1.417,0,0,0-1.388,1.44A1.428,1.428,0,0,0-752.576-961.863ZM-767.722-971a1.423,1.423,0,0,0-1.423,1.4,1.46,1.46,0,0,0,1.441,1.481,1.47,1.47,0,0,0,1.422-1.5A1.4,1.4,0,0,0-767.722-971Zm30.29,2.876a1.5,1.5,0,0,0,1.459-1.475A1.458,1.458,0,0,0-737.4-971a1.392,1.392,0,0,0-1.442,1.457A1.461,1.461,0,0,0-737.432-968.121Zm.021-33.18a1.424,1.424,0,0,0-1.437,1.38,1.4,1.4,0,0,0,1.419,1.481,1.471,1.471,0,0,0,1.457-1.379A1.467,1.467,0,0,0-737.41-1001.3Zm-36.611,18.017a1.478,1.478,0,0,0,1.473-1.378,1.453,1.453,0,0,0-1.357-1.481,1.408,1.408,0,0,0-1.5,1.411A1.429,1.429,0,0,0-774.022-983.284Zm21.46-21.423a1.475,1.475,0,0,0,1.43-1.42,1.433,1.433,0,0,0-1.4-1.438,1.409,1.409,0,0,0-1.463,1.449A1.445,1.445,0,0,0-752.561-1004.707Z" transform="translate(776.467 1008.626)" fill="#12263f"/>
      <path id="Path_183782" data-name="Path 183782" d="M-696.422-917.314a11.574,11.574,0,0,1-11.7-11.643,11.656,11.656,0,0,1,11.666-11.79,11.712,11.712,0,0,1,11.768,11.709A11.659,11.659,0,0,1-696.422-917.314ZM-694-928.564c-1.549,0-3.017-.01-4.485.017a.535.535,0,0,0-.362.38c.073,1.257.187,2.511.287,3.737h4.323C-694.159-925.791-694.083-927.115-694-928.564Zm0-.94c-.086-1.427-.167-2.767-.247-4.086h-4.343l-.287,4.086Zm4.574,6.028c.474.182.987.4,1.519.565a.576.576,0,0,0,.512-.156,11.161,11.161,0,0,0,1.867-5.481h-3Zm-10.183-.816c0-1.268.03-2.39-.022-3.509-.012-.262-.287-.719-.465-.732-1.021-.071-2.048-.034-3.3-.034l.88,4.846Zm10.2-4.247h-3.7c-.078,1.437-.153,2.834-.229,4.233l3.024.579Zm-.021-6.034.9,5.076h3.011a11.58,11.58,0,0,0-2.06-5.752Zm-.891.246-3.013.61c.076,1.436.147,2.79.222,4.211h3.707Zm-16.848,5.751c-.278,1.468.93,4.47,1.661,5.4a.757.757,0,0,0,.635.237,13.644,13.644,0,0,0,1.463-.544l-.9-5.1Zm-.056-.925h2.921l.9-5.074-1.877-.673A10.373,10.373,0,0,0-707.224-929.5Zm3.837-.029h3.694c.065-1.452.124-2.8.186-4.2l-3.022-.592Zm8.974-5.043a12.546,12.546,0,0,0-1.365-4.725c-.282-.485-.7-.846-1.15-.171a11.309,11.309,0,0,0-1.483,4.9Zm-4.255,11.107c.586,1.729,1.028,3.253,1.629,4.711.3.727.788.731,1.184.111a11.548,11.548,0,0,0,1.435-4.822Zm4-16.031,1.287,4.851,2.625-.482A8.248,8.248,0,0,0-694.663-939.495Zm-7.4,4.377,2.623.463,1.271-4.838A8.135,8.135,0,0,0-702.067-935.118Zm7.4,16.577a8.185,8.185,0,0,0,3.9-4.373l-2.627-.457Zm-4.781-4.839-2.621.48a8.238,8.238,0,0,0,3.892,4.365Zm7.571-15.645-.117.177,2.219,3.423,1.843-.653Zm-8.932.12a10.073,10.073,0,0,0-3.861,2.919l1.609.552Zm8.758,19.794a10.481,10.481,0,0,0,3.881-2.935l-1.613-.546Zm-12.637-2.93a10.408,10.408,0,0,0,3.882,2.9l-2.257-3.468Z" transform="translate(720.316 952.856)" fill="#12263f"/>
    </g>
  </g>
</svg>
