<svg id="Group_142499" data-name="Group 142499" xmlns="http://www.w3.org/2000/svg" xmlns:xlink="http://www.w3.org/1999/xlink" width="85.136" height="85.136" viewBox="0 0 85.136 85.136">
  <defs>
    <radialGradient id="radial-gradient" cx="0.076" cy="0.019" r="1.465" gradientTransform="translate(0.001)" gradientUnits="objectBoundingBox">
      <stop offset="0" stop-color="#f6f6f7"/>
      <stop offset="0.477" stop-color="#f9f9fa"/>
      <stop offset="0.715" stop-color="#fff"/>
    </radialGradient>
  </defs>
  <g id="Group_18423" data-name="Group 18423" transform="translate(0 0)">
    <g id="Group_18421" data-name="Group 18421">
      <g id="Group_18420" data-name="Group 18420">
        <g id="Group_18419" data-name="Group 18419">
          <path id="Path_40936" data-name="Path 40936" d="M279.759,2188.288a42.568,42.568,0,1,1-42.567-42.567A42.567,42.567,0,0,1,279.759,2188.288Z" transform="translate(-194.623 -2145.721)" fill="#fff"/>
        </g>
      </g>
    </g>
    <path id="Path_40937" data-name="Path 40937" d="M279.526,2188.033a42.567,42.567,0,1,0-42.567,42.569A42.4,42.4,0,0,0,279.526,2188.033Z" transform="translate(-194.389 -2145.467)" fill="url(#radial-gradient)"/>
    <path id="Path_40938" data-name="Path 40938" d="M267.443,2186.041a32.492,32.492,0,1,0-32.492,32.492A32.37,32.37,0,0,0,267.443,2186.041Z" transform="translate(-192.254 -2143.332)" fill="none" stroke="#1d272b" stroke-miterlimit="10" stroke-width="4"/>
    <g id="Group_18422" data-name="Group 18422" transform="translate(7.541 23.899)">
      <path id="Path_40939" data-name="Path 40939" d="M273.836,2164.488a42.573,42.573,0,0,1-73.291,42.392,42.438,42.438,0,0,0,73.291-42.392Z" transform="translate(-200.545 -2164.488)" fill="#eceef0"/>
    </g>
  </g>
  <g id="acqd7H" transform="translate(624.764 474.259)">
    <g id="Group_142567" data-name="Group 142567" transform="translate(-595.738 -452.547)">
      <path id="Path_183778" data-name="Path 183778" d="M-590.071-310.255h6.269c0-.579.009-1.139-.011-1.7,0-.077-.136-.174-.23-.218a6.527,6.527,0,0,1-3.772-4.693,6.4,6.4,0,0,1-.14-1.317c-.016-1.633,0-3.266-.011-4.9a.522.522,0,0,1,.33-.541,5.734,5.734,0,0,1,3.575-.707,10.561,10.561,0,0,1,1.914.612c.848.335,1.656.775,2.512,1.081a7.5,7.5,0,0,0,4.178.116c.425-.092.566.016.566.446,0,1.412.057,2.827-.023,4.234a6.354,6.354,0,0,1-3.175,5.275c-.258.16-.541.277-.8.431a.323.323,0,0,0-.151.219c-.013.543-.007,1.086-.007,1.655h6.317a8.338,8.338,0,0,0-.559-.868,3.768,3.768,0,0,0-2.885-1.361c-.23-.008-.461,0-.692,0a.311.311,0,0,1-.341-.323.312.312,0,0,1,.322-.343,4.753,4.753,0,0,1,3.857,1.3,3.6,3.6,0,0,1,.889,1.417c.05.148.12.21.275.2s.295,0,.443,0a1.775,1.775,0,0,1,1.829,1.838q.005,3.266,0,6.532v6.948c.117.007.214.017.311.018.341,0,.683,0,1.024.007a1.121,1.121,0,0,1,.94.551,1.865,1.865,0,0,1-.939,2.642,1.836,1.836,0,0,1-.544.075q-12.621.005-25.243,0a1.618,1.618,0,0,1-1.688-1.609c-.008-.156-.005-.314,0-.47a1.188,1.188,0,0,1,1.2-1.193c.413-.012.826,0,1.275,0v-.47q0-6.463,0-12.926a1.766,1.766,0,0,1,1.186-1.836,4.344,4.344,0,0,1,1.065-.1.276.276,0,0,0,.3-.205,4.17,4.17,0,0,1,3.694-2.7,6.757,6.757,0,0,1,.8-.014c.216,0,.362.1.365.327,0,.238-.145.349-.376.341a4.29,4.29,0,0,0-2.272.477,3.456,3.456,0,0,0-1.442,1.448C-589.979-310.481-590.013-310.388-590.071-310.255Zm19.792,15.332v-.478q0-6.379,0-12.759c0-.111.005-.222,0-.332a1.086,1.086,0,0,0-1.108-1.076q-2.047-.013-4.095-.013c-2.231,0-4.463.009-6.694.01q-4.593,0-9.186,0a1.1,1.1,0,0,0-1.208,1.224q0,6.559,0,13.118c0,.1.008.2.013.3Zm-5.285-26.871c-.1.013-.165.019-.227.03a8.013,8.013,0,0,1-4.23-.283,26.693,26.693,0,0,1-2.475-1.1,4.935,4.935,0,0,0-4.554,0,.353.353,0,0,0-.243.372c.01,1.476,0,2.952.009,4.428a7.7,7.7,0,0,0,.093,1.156,5.89,5.89,0,0,0,5.823,4.893,5.91,5.91,0,0,0,5.8-5.89c.006-1.107,0-2.214,0-3.321Zm-5.862,27.564h-12.7c-.138,0-.277,0-.415,0a.473.473,0,0,0-.475.359c-.156.747.032,1.569,1.077,1.568q12.523-.01,25.047,0a1.658,1.658,0,0,0,.33-.023c.519-.106.757-.482.758-1.179,0-.563-.159-.724-.721-.724Zm-1.63-17.607c-.024.029-.054.049-.055.07q-.009.661-.01,1.323c0,.148.077.2.228.2.468-.005.937,0,1.405,0h1.733v-1.605A6.323,6.323,0,0,1-583.055-311.837Z" transform="translate(595.738 331.493)" fill="#12263f" stroke="#12263f" stroke-width="0.5"/>
      <path id="Path_183779" data-name="Path 183779" d="M-475.734-445.114c.065.573.133,1.2.208,1.818.031.26-.056.44-.263.465-.235.029-.359-.1-.4-.324a9.532,9.532,0,0,1,.318-5.1,6.052,6.052,0,0,1,4.3-3.895,9.617,9.617,0,0,1,9.659,2.453,5.863,5.863,0,0,1,1.617,6c-.22.855-.531,1.687-.8,2.529a.332.332,0,0,1-.44.262c-.209-.058-.271-.241-.191-.5.282-.906.622-1.8.83-2.721a5.232,5.232,0,0,0-1.786-5.388,8.931,8.931,0,0,0-9.093-1.847,5.481,5.481,0,0,0-3.822,4.784C-475.669-446.109-475.688-445.637-475.734-445.114Z" transform="translate(482.995 452.547)" fill="#12263f" stroke="#12263f" stroke-width="0.5"/>
      <path id="Path_183780" data-name="Path 183780" d="M-377.079,33.157a2.5,2.5,0,0,1-2.491,2.478,2.494,2.494,0,0,1-2.472-2.524,2.5,2.5,0,0,1,2.491-2.483A2.5,2.5,0,0,1-377.079,33.157Zm-2.476,1.8a1.821,1.821,0,0,0,1.8-1.826,1.835,1.835,0,0,0-1.812-1.823,1.815,1.815,0,0,0-1.794,1.833A1.8,1.8,0,0,0-379.556,34.954Z" transform="translate(393.873 -3.88)" fill="#12263f" stroke="#12263f" stroke-width="0.5"/>
    </g>
  </g>
</svg>
