<svg xmlns="http://www.w3.org/2000/svg" xmlns:xlink="http://www.w3.org/1999/xlink" width="67" height="67" viewBox="0 0 67 67">
  <defs>
    <linearGradient id="linear-gradient" x1="0.5" x2="0.5" y2="1" gradientUnits="objectBoundingBox">
      <stop offset="0" stop-color="#039be5"/>
      <stop offset="1" stop-color="#027fbc"/>
    </linearGradient>
  </defs>
  <g id="Group_142470" data-name="Group 142470" transform="translate(0.406 0.394)">
    <circle id="Ellipse_4871" data-name="Ellipse 4871" cx="33.5" cy="33.5" r="33.5" transform="translate(-0.406 -0.394)" fill="url(#linear-gradient)"/>
    <g id="bbmYRn" transform="translate(15.398 15.382)">
      <g id="Group_142371" data-name="Group 142371" transform="translate(0 0)">
        <path id="Path_183509" data-name="Path 183509" d="M3553.7-878.791h-1.592v-1.195q0-16.28,0-32.561c0-1.646.272-1.935,1.881-1.936q16.28-.007,32.56,0c1.573,0,1.895.238,1.9,1.523q.018,13.9,0,27.8c0,.2-.042.4-.073.677h-1.417v-1.446c0-6.91-.019-13.821.021-20.731.006-1.014-.3-1.319-1.308-1.316q-15.365.046-30.731,0c-1.061,0-1.262.383-1.259,1.346.032,8.78.019,17.561.019,26.341Zm33.146-34.033H3553.8v3.376h30.3C3587.258-909.448,3587.258-909.448,3586.845-912.824Z" transform="translate(-3552.107 914.486)" fill="#fff"/>
        <path id="Path_183510" data-name="Path 183510" d="M3614.26-855.251l.976.882c1.058-1.3,1.843-.617,2.688.279q2.049,2.173,4.225,4.224c.858.809.843,1.472-.033,2.217a13.728,13.728,0,0,0-1.294,1.291c-.781.869-1.485.763-2.26-.041q-2.158-2.238-4.4-4.4c-.805-.773-1.127-1.5.071-2.506l-1.2-.884a10.379,10.379,0,0,1-14.7-2.142,10.216,10.216,0,0,1,1.26-13.335,10.228,10.228,0,0,1,13.479-.548C3617.5-866.652,3617.947-861.437,3614.26-855.251Zm-7.567-15.671a8.644,8.644,0,0,0-8.7,8.625,8.712,8.712,0,0,0,8.664,8.695,8.794,8.794,0,0,0,8.675-8.6A8.721,8.721,0,0,0,3606.692-870.922Zm13.142,23.324.926-.968-4.295-4.489-1.146.931Z" transform="translate(-3585.62 882.728)" fill="#fff"/>
        <path id="Path_183511" data-name="Path 183511" d="M3571.938-878.662v7.092h3.32v1.563h-4.9V-880.24h26.875c0,1.5.058,3.032-.056,4.552-.02.261-.774.467-1.473.858v-3.832Z" transform="translate(-3565.903 888.593)" fill="#fff"/>
        <path id="Path_183512" data-name="Path 183512" d="M3570.5-828.42h4.9v1.535h-3.345v4.461h5.75c.026.565.046.991.071,1.524H3570.5Z" transform="translate(-3566.015 849.412)" fill="#fff"/>
        <path id="Path_183513" data-name="Path 183513" d="M3570.291-903.132V-904.5h2.015v1.369Z" transform="translate(-3565.856 906.936)" fill="#fff"/>
        <path id="Path_183514" data-name="Path 183514" d="M3587.4-904.4v1.333l-1.963.115V-904.4Z" transform="translate(-3577.311 906.863)" fill="#fff"/>
        <path id="Path_183515" data-name="Path 183515" d="M3600.427-903.1v-1.34h1.981c.024.4.049.818.08,1.34Z" transform="translate(-3588.641 906.888)" fill="#fff"/>
        <path id="Path_183516" data-name="Path 183516" d="M3625.012-837.611l-2.845-2.79,1.072-1.035,1.859,1.774,3.79-3.919,1.14,1.279Z" transform="translate(-3605.079 860.875)" fill="#fff"/>
      </g>
    </g>
  </g>
</svg>
