<svg id="Group_142497" data-name="Group 142497" xmlns="http://www.w3.org/2000/svg" xmlns:xlink="http://www.w3.org/1999/xlink" width="85.136" height="85.136" viewBox="0 0 85.136 85.136">
  <defs>
    <radialGradient id="radial-gradient" cx="0.076" cy="0.019" r="1.465" gradientTransform="translate(0.001)" gradientUnits="objectBoundingBox">
      <stop offset="0" stop-color="#f6f6f7"/>
      <stop offset="0.477" stop-color="#f9f9fa"/>
      <stop offset="0.715" stop-color="#fff"/>
    </radialGradient>
  </defs>
  <g id="Group_18423" data-name="Group 18423" transform="translate(0 0)">
    <g id="Group_18421" data-name="Group 18421">
      <g id="Group_18420" data-name="Group 18420">
        <g id="Group_18419" data-name="Group 18419">
          <path id="Path_40936" data-name="Path 40936" d="M279.759,2188.288a42.568,42.568,0,1,1-42.567-42.567A42.567,42.567,0,0,1,279.759,2188.288Z" transform="translate(-194.623 -2145.721)" fill="#fff"/>
        </g>
      </g>
    </g>
    <path id="Path_40937" data-name="Path 40937" d="M279.526,2188.033a42.567,42.567,0,1,0-42.567,42.569A42.4,42.4,0,0,0,279.526,2188.033Z" transform="translate(-194.389 -2145.467)" fill="url(#radial-gradient)"/>
    <path id="Path_40938" data-name="Path 40938" d="M267.443,2186.041a32.492,32.492,0,1,0-32.492,32.492A32.37,32.37,0,0,0,267.443,2186.041Z" transform="translate(-192.254 -2143.332)" fill="none" stroke="#1d272b" stroke-miterlimit="10" stroke-width="4"/>
    <g id="Group_18422" data-name="Group 18422" transform="translate(7.541 23.899)">
      <path id="Path_40939" data-name="Path 40939" d="M273.836,2164.488a42.573,42.573,0,0,1-73.291,42.392,42.438,42.438,0,0,0,73.291-42.392Z" transform="translate(-200.545 -2164.488)" fill="#eceef0"/>
    </g>
  </g>
  <g id="OfmmeW.tif" transform="translate(30.192 24.087)">
    <g id="Group_142298" data-name="Group 142298">
      <path id="Path_118067" data-name="Path 118067" d="M1318.747,2259.6v-30.545c.356-1.007,1.191-1.078,2.086-1,0-.165,0-.268,0-.37a1.322,1.322,0,0,1,1.5-1.491h.818c0-.269,0-.486,0-.7,0-1.167.445-1.617,1.6-1.617,4.842,0,9.684.005,14.526-.009a1.429,1.429,0,0,1,1.129.359c1.835,1.881,3.673,3.76,5.492,5.655a1.076,1.076,0,0,1,.262.68q.023,9.162.015,18.325,0,3.093,0,6.186a1.317,1.317,0,0,1-1.445,1.436c-.254,0-.508,0-.779,0-.057.624.1,1.254-.369,1.759s-1.133.372-1.734.419c0,.114,0,.178,0,.243-.014,1.274-.423,1.678-1.7,1.678q-9.89,0-19.781.01A1.517,1.517,0,0,1,1318.747,2259.6Zm20.4-34.644h-14.383c-.53,0-.53,0-.53.541q0,14.692,0,29.385c0,.54,0,.541.537.541h19.782c.543,0,.545,0,.545-.534q0-11.773,0-23.547v-.432h-4.335c-1.143,0-1.615-.475-1.615-1.621C1339.147,2227.863,1339.147,2226.434,1339.147,2224.957Zm3.687,31.551H1324.74c-1.12,0-1.588-.472-1.588-1.6q0-13.567,0-27.135v-.494h-.641c-.6,0-.6,0-.6.594v29.145c0,.573,0,.574.579.574q9.714,0,19.429,0C1342.9,2257.585,1342.9,2257.837,1342.834,2256.508Zm-2.088,2.165h-18.328c-1.124,0-1.585-.465-1.585-1.6V2229.15c-.095-.007-.156-.014-.217-.016-.787-.021-.787-.021-.787.753v29.031c0,.606,0,.606.621.606h19.584C1340.813,2259.523,1340.813,2259.523,1340.746,2258.673Zm-.517-33.09c0,1.378,0,2.638,0,3.9,0,.275.143.353.391.35.592-.007,1.184,0,1.776,0h1.973Z" transform="translate(-1318.747 -2223.866)" fill="#12263f"/>
      <path id="Path_118068" data-name="Path 118068" d="M1423.954,2345.685h7.528a2.488,2.488,0,0,1,.347.007.537.537,0,0,1-.01,1.071,2.45,2.45,0,0,1-.308,0h-15.133a1.739,1.739,0,0,1-.346-.011.536.536,0,0,1,.01-1.062,1.861,1.861,0,0,1,.347-.01Z" transform="translate(-1408.069 -2336.242)" fill="#12263f"/>
      <path id="Path_118069" data-name="Path 118069" d="M1423.953,2386.7h-7.528a2.35,2.35,0,0,1-.347-.007.537.537,0,0,1,.017-1.071,2.26,2.26,0,0,1,.27,0h15.21c.077,0,.155,0,.232,0a.534.534,0,0,1,.532.546.528.528,0,0,1-.55.531c-.1.008-.206,0-.309,0Z" transform="translate(-1408.082 -2373.083)" fill="#12263f"/>
      <path id="Path_118070" data-name="Path 118070" d="M1423.909,2427.6h-7.528a1.781,1.781,0,0,1-.347-.01.536.536,0,0,1,0-1.062,1.821,1.821,0,0,1,.347-.01h15.134a1.82,1.82,0,0,1,.347.01.536.536,0,0,1,0,1.062,1.823,1.823,0,0,1-.347.009Z" transform="translate(-1408.069 -2410.811)" fill="#12263f"/>
      <path id="Path_118071" data-name="Path 118071" d="M1423.978,2468.52h-7.567a2.22,2.22,0,0,1-.347-.008.537.537,0,0,1-.007-1.067,1.852,1.852,0,0,1,.308-.007h15.172a1.6,1.6,0,0,1,.346.013.535.535,0,0,1,.007,1.055,1.833,1.833,0,0,1-.385.014Z" transform="translate(-1408.076 -2448.561)" fill="#12263f"/>
      <path id="Path_118072" data-name="Path 118072" d="M1421.546,2508.434h-5.172a1.7,1.7,0,0,1-.346-.011.536.536,0,0,1,.014-1.062,1.748,1.748,0,0,1,.308-.009h10.42a1.776,1.776,0,0,1,.27.006.537.537,0,0,1-.014,1.071,2.451,2.451,0,0,1-.309.005Z" transform="translate(-1408.069 -2485.381)" fill="#12263f"/>
    </g>
  </g>
</svg>
