<svg xmlns="http://www.w3.org/2000/svg" xmlns:xlink="http://www.w3.org/1999/xlink" width="67" height="67" viewBox="0 0 67 67">
  <defs>
    <linearGradient id="linear-gradient" x1="0.5" x2="0.5" y2="1" gradientUnits="objectBoundingBox">
      <stop offset="0" stop-color="#039be5"/>
      <stop offset="1" stop-color="#027fbc"/>
    </linearGradient>
  </defs>
  <g id="Group_142471" data-name="Group 142471" transform="translate(0.406 0.394)">
    <circle id="Ellipse_4871" data-name="Ellipse 4871" cx="33.5" cy="33.5" r="33.5" transform="translate(-0.406 -0.394)" fill="url(#linear-gradient)"/>
    <g id="Group_28520" data-name="Group 28520" transform="translate(16.235 14.021)">
      <path id="Path_67883" data-name="Path 67883" d="M227.6,211.748a4.1,4.1,0,1,1,4.1-4.1A4.1,4.1,0,0,1,227.6,211.748Zm0-7.1a3,3,0,1,0,3,3A3.005,3.005,0,0,0,227.6,204.65Z" transform="translate(-215.597 -198.669)" fill="#fff"/>
      <path id="Path_67884" data-name="Path 67884" d="M227.6,246.006a4.1,4.1,0,1,1,4.1-4.1A4.1,4.1,0,0,1,227.6,246.006Zm0-7.1a3,3,0,1,0,3,3A3.005,3.005,0,0,0,227.6,238.908Z" transform="translate(-215.597 -221.538)" fill="#fff"/>
      <path id="Path_67885" data-name="Path 67885" d="M227.6,280.264a4.1,4.1,0,1,1,4.1-4.1A4.1,4.1,0,0,1,227.6,280.264Zm0-7.1a3,3,0,1,0,3,3A3,3,0,0,0,227.6,273.167Z" transform="translate(-215.597 -244.408)" fill="#fff"/>
      <path id="Path_67886" data-name="Path 67886" d="M204.8,198.741h-3.587a1.492,1.492,0,1,1,0-2.983H204.8a1.492,1.492,0,1,1,0,2.983Zm-3.587-1.89a.4.4,0,1,0,0,.8H204.8a.4.4,0,1,0,0-.8Z" transform="translate(-199.72 -193.463)" fill="#fff"/>
      <path id="Path_67887" data-name="Path 67887" d="M204.8,218.7h-3.587a1.492,1.492,0,0,1,0-2.983H204.8a1.492,1.492,0,0,1,0,2.983Zm-3.587-1.89a.4.4,0,1,0,0,.8H204.8a.4.4,0,0,0,0-.8Z" transform="translate(-199.72 -206.784)" fill="#fff"/>
      <path id="Path_67888" data-name="Path 67888" d="M204.8,238.651h-3.587a1.492,1.492,0,0,1,0-2.983H204.8a1.492,1.492,0,0,1,0,2.983Zm-3.587-1.89a.4.4,0,0,0,0,.8H204.8a.4.4,0,0,0,0-.8Z" transform="translate(-199.72 -220.105)" fill="#fff"/>
      <path id="Path_67889" data-name="Path 67889" d="M204.8,258.607h-3.587a1.492,1.492,0,0,1,0-2.983H204.8a1.492,1.492,0,0,1,0,2.983Zm-3.587-1.89a.4.4,0,0,0,0,.8H204.8a.4.4,0,0,0,0-.8Z" transform="translate(-199.72 -233.427)" fill="#fff"/>
      <path id="Path_67890" data-name="Path 67890" d="M204.8,278.563h-3.587a1.492,1.492,0,0,1,0-2.983H204.8a1.492,1.492,0,0,1,0,2.983Zm-3.587-1.89a.4.4,0,1,0,0,.8H204.8a.4.4,0,1,0,0-.8Z" transform="translate(-199.72 -246.748)" fill="#fff"/>
      <path id="Path_67891" data-name="Path 67891" d="M204.8,298.519h-3.587a1.492,1.492,0,1,1,0-2.983H204.8a1.492,1.492,0,1,1,0,2.983Zm-3.587-1.89a.4.4,0,1,0,0,.8H204.8a.4.4,0,0,0,0-.8Z" transform="translate(-199.72 -260.07)" fill="#fff"/>
      <path id="Path_67892" data-name="Path 67892" d="M238.532,229.6H210.161a1.277,1.277,0,0,1-1.275-1.276v-1.566a.547.547,0,0,1,.547-.547h1.485a.4.4,0,0,0,.4-.42.439.439,0,0,0-.451-.376h-1.432a.547.547,0,0,1-.547-.547v-4.744a.547.547,0,0,1,.547-.547h1.485a.4.4,0,0,0,.4-.42.439.439,0,0,0-.451-.376h-1.432a.547.547,0,0,1-.547-.547v-4.744a.547.547,0,0,1,.547-.547h1.485a.4.4,0,0,0,.4-.421.439.439,0,0,0-.451-.376h-1.432a.547.547,0,0,1-.547-.547v-4.744a.547.547,0,0,1,.547-.547h1.485a.4.4,0,0,0,.4-.42.439.439,0,0,0-.451-.377h-1.432a.547.547,0,0,1-.547-.547v-4.744a.547.547,0,0,1,.547-.547h1.485a.4.4,0,0,0,.4-.421.439.439,0,0,0-.451-.376h-1.432a.547.547,0,0,1-.547-.547v-4.744a.547.547,0,0,1,.547-.547h1.485a.4.4,0,0,0,.4-.421.439.439,0,0,0-.451-.376h-1.432a.547.547,0,0,1-.547-.547V190.13a1.277,1.277,0,0,1,1.275-1.275h28.371a1.277,1.277,0,0,1,1.276,1.275v38.194A1.277,1.277,0,0,1,238.532,229.6Zm-28.553-2.3v1.02a.182.182,0,0,0,.182.182h28.371a.182.182,0,0,0,.182-.182V190.13a.182.182,0,0,0-.182-.182H210.161a.182.182,0,0,0-.182.182v1.02h.885a1.52,1.52,0,0,1,1.543,1.413,1.479,1.479,0,0,1-.408,1.106,1.5,1.5,0,0,1-1.082.465h-.939v3.651h.885a1.519,1.519,0,0,1,1.543,1.412A1.479,1.479,0,0,1,212,200.3a1.5,1.5,0,0,1-1.082.465h-.939v3.651h.885a1.52,1.52,0,0,1,1.543,1.413,1.479,1.479,0,0,1-.408,1.106,1.5,1.5,0,0,1-1.082.465h-.939v3.651h.885a1.52,1.52,0,0,1,1.543,1.413,1.479,1.479,0,0,1-.408,1.106,1.5,1.5,0,0,1-1.082.465h-.939v3.651h.885a1.52,1.52,0,0,1,1.543,1.413,1.479,1.479,0,0,1-.408,1.106,1.5,1.5,0,0,1-1.082.465h-.939v3.651h.885a1.519,1.519,0,0,1,1.543,1.412,1.479,1.479,0,0,1-.408,1.106,1.5,1.5,0,0,1-1.082.465Z" transform="translate(-205.839 -188.855)" fill="#fff"/>
      <path id="Path_67893" data-name="Path 67893" d="M234.725,230.29a.547.547,0,0,1-.547-.547v-4.292a.547.547,0,1,1,1.093,0v4.292A.547.547,0,0,1,234.725,230.29Z" transform="translate(-222.722 -212.92)" fill="#fff"/>
      <path id="Path_67894" data-name="Path 67894" d="M234.725,264.548a.547.547,0,0,1-.547-.547V259.71a.547.547,0,1,1,1.093,0V264A.547.547,0,0,1,234.725,264.548Z" transform="translate(-222.722 -235.789)" fill="#fff"/>
      <path id="Path_67895" data-name="Path 67895" d="M254.7,208.024h-1.64a.547.547,0,0,1,0-1.093h1.64a.547.547,0,0,1,0,1.093Z" transform="translate(-234.96 -200.922)" fill="#fff"/>
      <path id="Path_67896" data-name="Path 67896" d="M270.716,208.024h-3.175a.547.547,0,0,1,0-1.093h3.175a.547.547,0,0,1,0,1.093Z" transform="translate(-244.629 -200.922)" fill="#fff"/>
      <path id="Path_67897" data-name="Path 67897" d="M288.283,208.024h-1.64a.547.547,0,0,1,0-1.093h1.64a.547.547,0,0,1,0,1.093Z" transform="translate(-257.38 -200.922)" fill="#fff"/>
      <path id="Path_67898" data-name="Path 67898" d="M265.862,222.624H253.057a.547.547,0,1,1,0-1.093h12.806a.547.547,0,0,1,0,1.093Z" transform="translate(-234.96 -210.668)" fill="#fff"/>
      <path id="Path_67899" data-name="Path 67899" d="M265.862,242.282H253.057a.547.547,0,0,1,0-1.093h12.806a.547.547,0,0,1,0,1.093Z" transform="translate(-234.96 -223.79)" fill="#fff"/>
      <path id="Path_67900" data-name="Path 67900" d="M265.862,256.882H253.057a.547.547,0,0,1,0-1.093h12.806a.547.547,0,0,1,0,1.093Z" transform="translate(-234.96 -233.537)" fill="#fff"/>
      <path id="Path_67901" data-name="Path 67901" d="M265.862,276.541H253.057a.547.547,0,0,1,0-1.093h12.806a.547.547,0,0,1,0,1.093Z" transform="translate(-234.96 -246.66)" fill="#fff"/>
      <path id="Path_67902" data-name="Path 67902" d="M265.862,291.14H253.057a.547.547,0,0,1,0-1.093h12.806a.547.547,0,0,1,0,1.093Z" transform="translate(-234.96 -256.406)" fill="#fff"/>
    </g>
  </g>
</svg>
