<svg xmlns="http://www.w3.org/2000/svg" xmlns:xlink="http://www.w3.org/1999/xlink" width="66" height="67" viewBox="0 0 66 67">
  <defs>
    <linearGradient id="linear-gradient" x1="0.5" x2="0.5" y2="1" gradientUnits="objectBoundingBox">
      <stop offset="0" stop-color="#039be5"/>
      <stop offset="1" stop-color="#027fbc"/>
    </linearGradient>
  </defs>
  <g id="Group_142469" data-name="Group 142469" transform="translate(-0.239 0.394)">
    <ellipse id="Ellipse_4775" data-name="Ellipse 4775" cx="33" cy="33.5" rx="33" ry="33.5" transform="translate(0.239 -0.394)" fill="url(#linear-gradient)"/>
    <g id="jS21yb.tif" transform="translate(16.952 13.459)">
      <g id="Group_142300" data-name="Group 142300" transform="translate(0 0)">
        <path id="Path_118083" data-name="Path 118083" d="M-103.4,2638.557c1.333-1.582,2.49-2.962,3.655-4.337a2.348,2.348,0,0,1,3.754-.336c2.315,1.913,2.381,2.653.445,4.958-2.478,2.95-4.966,5.893-7.42,8.863a1.978,1.978,0,0,0-.416,1.159c-.029,4.537-.017,9.075-.019,13.612,0,1.675-.716,2.387-2.4,2.387q-12.052,0-24.1,0c-1.629,0-2.356-.723-2.356-2.345q0-17.342,0-34.684a2.018,2.018,0,0,1,2.294-2.325c6.586,0,13.173,0,19.759-.01a2.573,2.573,0,0,1,1.975.8q2,2.053,4.057,4.059a2.472,2.472,0,0,1,.78,1.9C-103.415,2634.276-103.4,2636.289-103.4,2638.557Zm-1.311-6.492c-1.442,0-2.8,0-4.158,0-.954,0-1.084-.135-1.087-1.1,0-1.357,0-2.715,0-4.092a3.549,3.549,0,0,0-.4-.053q-9.835,0-19.67-.011c-.808,0-.929.44-.928,1.106q.013,17.254.007,34.508c0,1.007.121,1.126,1.141,1.126q11.966,0,23.931,0c1.059,0,1.162-.105,1.162-1.187q0-5.821,0-11.64v-.947c-1.191,1.412-2.217,2.635-3.255,3.85a2.36,2.36,0,0,1-.706.666q-2.421,1.1-4.879,2.123a.646.646,0,0,1-.931-.782c.387-1.732.806-3.457,1.247-5.175a2.128,2.128,0,0,1,.483-.744c2.255-2.708,4.467-5.454,6.8-8.092a4.545,4.545,0,0,0,1.268-3.516C-104.794,2636.127-104.711,2634.136-104.711,2632.065Zm4.223,5.058-11.193,13.346,2.739,2.3,11.2-13.343Z" transform="translate(132.259 -2625.498)" fill="#fff"/>
        <path id="Path_118084" data-name="Path 118084" d="M-101.765,2754.294h-1.8a.709.709,0,0,1-.8-.8c0-1.226,0-2.452,0-3.678a.68.68,0,0,1,.759-.76c1.226,0,2.452,0,3.678,0a.709.709,0,0,1,.8.8c0,1.226,0,2.452,0,3.678a.682.682,0,0,1-.759.761C-100.512,2754.3-101.138,2754.293-101.765,2754.294Zm1.313-3.879h-2.543v2.5h2.543Z" transform="translate(108.96 -2728.705)" fill="#fff"/>
        <path id="Path_118085" data-name="Path 118085" d="M-101.737,2796.822c.572,0,1.144.008,1.716,0s.87.237.869.824q0,1.8,0,3.6c0,.585-.294.833-.864.829-1.171-.008-2.343-.01-3.514,0-.627.006-.879-.3-.872-.907.014-1.144.017-2.289,0-3.433-.011-.669.3-.936.949-.913C-102.882,2796.837-102.309,2796.821-101.737,2796.822Zm1.221,3.918v-2.547h-2.5v2.547Z" transform="translate(108.989 -2768.605)" fill="#fff"/>
        <path id="Path_118086" data-name="Path 118086" d="M-57.855,2713.177c1.855,0,3.709,0,5.564,0,.506,0,1,.064.97.7-.023.574-.5.62-.966.619q-5.564-.007-11.128,0c-.505,0-.995-.062-.97-.7.023-.576.5-.622.966-.62C-61.564,2713.181-59.71,2713.177-57.855,2713.177Z" transform="translate(75.562 -2698.737)" fill="#fff"/>
        <path id="Path_118087" data-name="Path 118087" d="M-56.125,2666.677c-1.117,0-2.237.045-3.349-.03a1.1,1.1,0,0,1-.827-.625c-.1-.491.342-.658.809-.656,2.261,0,4.523-.022,6.784.03.294.007.579.4.869.618-.284.221-.556.614-.853.633C-53.834,2666.721-54.981,2666.677-56.125,2666.677Z" transform="translate(72.162 -2658.798)" fill="#fff"/>
        <path id="Path_118088" data-name="Path 118088" d="M-100.9,2656.837c.536-1.062,1.006-1.975,1.459-2.9.219-.445.477-.885,1.041-.594s.344.765.123,1.2c-.565,1.116-1.114,2.24-1.686,3.354-.4.771-.76.835-1.372.247a18.192,18.192,0,0,1-1.653-1.691c-.173-.215-.071-.651-.1-.986.335.029.753-.058.987.111A9.206,9.206,0,0,1-100.9,2656.837Z" transform="translate(107.895 -2648.683)" fill="#fff"/>
        <path id="Path_118089" data-name="Path 118089" d="M-101.915,2704.624c.527-1.048.981-1.942,1.426-2.84.214-.433.447-.9,1.027-.633s.39.742.166,1.184c-.578,1.14-1.138,2.29-1.725,3.426-.371.718-.742.778-1.325.223-.552-.525-1.081-1.075-1.623-1.611-.32-.316-.536-.669-.164-1.06.41-.431.784-.2,1.116.149S-102.343,2704.171-101.915,2704.624Z" transform="translate(108.928 -2688.626)" fill="#fff"/>
        <path id="Path_118090" data-name="Path 118090" d="M-60.76,2762.281c-.926,0-1.852,0-2.778,0-.474,0-.882-.2-.781-.688a1.032,1.032,0,0,1,.779-.595c1.85-.053,3.7-.026,5.555-.028.475,0,.881.2.781.687a1.051,1.051,0,0,1-.781.594C-58.9,2762.328-59.834,2762.281-60.76,2762.281Z" transform="translate(75.518 -2738.659)" fill="#fff"/>
        <path id="Path_118091" data-name="Path 118091" d="M-61.9,2810.008a10.88,10.88,0,0,1-1.79-.029c-.289-.048-.527-.4-.787-.619.256-.22.5-.615.77-.63a33.08,33.08,0,0,1,3.669,0c.272.015.523.4.784.618-.256.22-.49.585-.774.63A12.075,12.075,0,0,1-61.9,2810.008Z" transform="translate(75.636 -2778.516)" fill="#fff"/>
      </g>
    </g>
  </g>
</svg>
