<svg id="Group_142498" data-name="Group 142498" xmlns="http://www.w3.org/2000/svg" xmlns:xlink="http://www.w3.org/1999/xlink" width="85.136" height="85.136" viewBox="0 0 85.136 85.136">
  <defs>
    <radialGradient id="radial-gradient" cx="0.076" cy="0.019" r="1.465" gradientTransform="translate(0.001)" gradientUnits="objectBoundingBox">
      <stop offset="0" stop-color="#f6f6f7"/>
      <stop offset="0.477" stop-color="#f9f9fa"/>
      <stop offset="0.715" stop-color="#fff"/>
    </radialGradient>
  </defs>
  <g id="Group_18423" data-name="Group 18423" transform="translate(0 0)">
    <g id="Group_18421" data-name="Group 18421">
      <g id="Group_18420" data-name="Group 18420">
        <g id="Group_18419" data-name="Group 18419">
          <path id="Path_40936" data-name="Path 40936" d="M279.759,2188.288a42.568,42.568,0,1,1-42.567-42.567A42.567,42.567,0,0,1,279.759,2188.288Z" transform="translate(-194.623 -2145.721)" fill="#fff"/>
        </g>
      </g>
    </g>
    <path id="Path_40937" data-name="Path 40937" d="M279.526,2188.033a42.567,42.567,0,1,0-42.567,42.569A42.4,42.4,0,0,0,279.526,2188.033Z" transform="translate(-194.389 -2145.467)" fill="url(#radial-gradient)"/>
    <path id="Path_40938" data-name="Path 40938" d="M267.443,2186.041a32.492,32.492,0,1,0-32.492,32.492A32.37,32.37,0,0,0,267.443,2186.041Z" transform="translate(-192.254 -2143.332)" fill="none" stroke="#1d272b" stroke-miterlimit="10" stroke-width="4"/>
    <g id="Group_18422" data-name="Group 18422" transform="translate(7.541 23.899)">
      <path id="Path_40939" data-name="Path 40939" d="M273.836,2164.488a42.573,42.573,0,0,1-73.291,42.392,42.438,42.438,0,0,0,73.291-42.392Z" transform="translate(-200.545 -2164.488)" fill="#eceef0"/>
    </g>
  </g>
  <g id="xgJC4J.tif" transform="translate(287.181 -1.423)">
    <g id="Group_142566" data-name="Group 142566" transform="translate(-263.091 28.713)">
      <path id="Path_183776" data-name="Path 183776" d="M-235.1,65.495H-248.17a.3.3,0,0,0-.089-.055,3.286,3.286,0,0,1-2.444-1.957c-1.265-2.6-2.55-5.191-3.821-7.788a3.276,3.276,0,0,1,.961-4.259c1.074-.86,2.151-1.716,3.219-2.583a.577.577,0,0,0,.225-.363c.015-1.735.012-3.47,0-5.206a.356.356,0,0,0-.12-.264c-.38-.24-.773-.46-1.18-.7-1.017,1.019-2.026,2.039-3.048,3.045a.5.5,0,0,0-.149.612,3.062,3.062,0,0,1-.823,3.384,3.048,3.048,0,0,1-3.488.627,3.212,3.212,0,0,1-1.7-4.193,3.231,3.231,0,0,1,4.108-1.774.393.393,0,0,0,.491-.125c.959-.97,1.926-1.932,2.89-2.9.075-.075.143-.156.214-.234a7.621,7.621,0,0,1-1.38-5.837c-.967-.318-1.905-.632-2.85-.926a.408.408,0,0,0-.322.123,3.113,3.113,0,0,1-3.509.839,3.035,3.035,0,0,1-2.085-2.712,3.043,3.043,0,0,1,1.364-2.941,3.044,3.044,0,0,1,3.2-.269,3.112,3.112,0,0,1,1.83,2.528c.018.131.1.328.2.362.944.331,1.9.633,2.848.944a7.421,7.421,0,0,1,7.051-4.128,7.4,7.4,0,0,1,6.694,4.63.562.562,0,0,0,.119,0c2.238-.554,4.474-1.113,6.714-1.658.253-.062.285-.215.335-.427a3.09,3.09,0,0,1,2.416-2.471,3.1,3.1,0,0,1,3.172,1.033,3.688,3.688,0,0,1,.789,1.738v.718a.746.746,0,0,0-.052.133,3.1,3.1,0,0,1-2.456,2.64,3.115,3.115,0,0,1-3.293-1.165.454.454,0,0,0-.38-.108c-1.348.32-2.692.658-4.037.992l-2.766.686a.563.563,0,0,0-.032.132,8.08,8.08,0,0,1-.307,2.838c-.022.074.079.239.164.282,1.032.528,2.068,1.048,3.112,1.55a.471.471,0,0,0,.4-.066,3.209,3.209,0,0,1,4.932,1.095,3.2,3.2,0,0,1-.422,3.462,3.2,3.2,0,0,1-3.293,1.055,3.227,3.227,0,0,1-2.412-3.254c0-.111-.049-.282-.128-.322-1.113-.573-2.236-1.128-3.38-1.7a7.856,7.856,0,0,1-2.828,2.452.271.271,0,0,0-.119.194c-.014.245-.006.492-.006.742,2.4-.264,3.153.134,4.213,2.2a3.3,3.3,0,0,1,4.318,2.169,3.282,3.282,0,0,1,4.391,3.467c-.067.882-.075,1.769-.134,2.652a40.89,40.89,0,0,1-1.552,8.666,3.1,3.1,0,0,1-1.555,1.972A8.837,8.837,0,0,1-235.1,65.495Zm-15.005-14.083c-.854.707-1.651,1.33-2.4,2a.957.957,0,0,0-.138,1.2q1.982,4.06,3.981,8.111a1.064,1.064,0,0,0,1.02.611q6.013,0,12.027,0a1.092,1.092,0,0,0,1.156-.88,41.073,41.073,0,0,0,1.586-11.009,1.086,1.086,0,0,0-1.011-1.173,1.091,1.091,0,0,0-1.139,1.048,1.094,1.094,0,0,1-1.127,1.1,1.084,1.084,0,0,1-1.028-1.192c0-.658.032-1.319-.017-1.974a1.539,1.539,0,0,0-.338-.829.923.923,0,0,0-1.118-.226,1.041,1.041,0,0,0-.679,1.007c-.01.718.008,1.437-.009,2.154a1.068,1.068,0,0,1-1.051,1.06,1.079,1.079,0,0,1-1.094-1.055c-.01-.191-.005-.383-.005-.574,0-1.245.008-2.49,0-3.734a1.07,1.07,0,0,0-1.054-1.094,1.089,1.089,0,0,0-1.094,1.095c0,.108,0,.215,0,.323,0,1.3.005,2.609,0,3.914a1.075,1.075,0,0,1-1.059,1.126,1.085,1.085,0,0,1-1.092-1.132c0-.1,0-.192,0-.287V43.066q0-3.339,0-6.679a1.1,1.1,0,0,0-.684-1.116,1.079,1.079,0,0,0-1.471,1.126q0,6.643,0,13.286c0,1.245,0,2.49,0,3.734a1.088,1.088,0,0,1-.465.958,1,1,0,0,1-1.086.083,1.026,1.026,0,0,1-.6-.949C-250.116,52.846-250.107,52.182-250.107,51.412Zm0-10.893c0-.139,0-.253,0-.366q0-1.866,0-3.733a3.557,3.557,0,0,1,.451-1.785,3.258,3.258,0,0,1,3.438-1.53,3.148,3.148,0,0,1,2.506,2.669c.083.926.054,1.863.066,2.8.008.641,0,1.282,0,1.946a5.349,5.349,0,0,0,1.957-5.692A5.445,5.445,0,0,0-246.8,30.88a5.43,5.43,0,0,0-5.232,3.834A5.319,5.319,0,0,0-250.111,40.519Zm-8.689-8.571a1.084,1.084,0,0,0-1.081-1.067,1.091,1.091,0,0,0-1.067,1.084,1.084,1.084,0,0,0,1.083,1.065A1.084,1.084,0,0,0-258.8,31.948Zm28.153-.022a1.093,1.093,0,0,0,1.046,1.1,1.086,1.086,0,0,0,1.1-1.045,1.093,1.093,0,0,0-1.046-1.1A1.086,1.086,0,0,0-230.647,31.926ZM-233.964,43.8a1.084,1.084,0,0,0,1.085-1.062,1.092,1.092,0,0,0-1.063-1.087,1.084,1.084,0,0,0-1.085,1.062A1.091,1.091,0,0,0-233.964,43.8Zm-23.674,2.16a1.084,1.084,0,0,0-1.085,1.063,1.091,1.091,0,0,0,1.064,1.086,1.084,1.084,0,0,0,1.085-1.063A1.092,1.092,0,0,0-257.638,45.963Z" transform="translate(263.091 -28.713)" fill="#12263f"/>
      <path id="Path_183777" data-name="Path 183777" d="M129.159,223.385a1.074,1.074,0,1,1-2.149-.025" transform="translate(-98.947 -209.357)" fill="#12263f"/>
    </g>
  </g>
</svg>
