<svg xmlns="http://www.w3.org/2000/svg" xmlns:xlink="http://www.w3.org/1999/xlink" width="66" height="67" viewBox="0 0 66 67">
  <defs>
    <linearGradient id="linear-gradient" x1="0.5" x2="0.5" y2="1" gradientUnits="objectBoundingBox">
      <stop offset="0" stop-color="#039be5"/>
      <stop offset="1" stop-color="#027fbc"/>
    </linearGradient>
  </defs>
  <g id="Group_142468" data-name="Group 142468" transform="translate(-0.256 0.394)">
    <ellipse id="Ellipse_4870" data-name="Ellipse 4870" cx="33" cy="33.5" rx="33" ry="33.5" transform="translate(0.256 -0.394)" fill="url(#linear-gradient)"/>
    <g id="Fn9hEg" transform="translate(13.103 15.382)">
      <g id="Group_142370" data-name="Group 142370" transform="translate(0 0)">
        <path id="Path_183502" data-name="Path 183502" d="M3107.243-919.679v32.436a1.23,1.23,0,0,1-1.172.569q-18.957-.021-37.913,0a1.221,1.221,0,0,1-1.178-.564v-32.436a1.229,1.229,0,0,1,1.178-.568q18.954.02,37.907,0A1.221,1.221,0,0,1,3107.243-919.679Zm-1.716,31.293v-23.422h-36.842v23.422Zm.014-30.137H3068.7v4.968h36.843Z" transform="translate(-3066.98 920.247)" fill="#fff"/>
        <path id="Path_183503" data-name="Path 183503" d="M3136.306-799.807c1.571,2.5,3.134,4.968,4.665,7.454a1.278,1.278,0,0,1,.149.921.834.834,0,0,1-.637.493,1.292,1.292,0,0,1-.859-.477c-.661-.944-1.253-1.936-1.867-2.913q-1.5-2.387-3-4.776c-.434-.693-.433-.859.039-1.5q2.4-3.26,4.8-6.516a.872.872,0,0,1,1.243-.343c.441.292.505.783.117,1.315-1.481,2.03-2.977,4.049-4.468,6.073C3136.443-800,3136.391-799.928,3136.306-799.807Z" transform="translate(-3126.896 820.207)" fill="#fff"/>
        <path id="Path_183504" data-name="Path 183504" d="M3300.322-808.7a3.277,3.277,0,0,1,.715.519q2.539,3.4,5.044,6.823a.851.851,0,0,1,.025,1.039q-2.5,3.966-4.992,7.933a.841.841,0,0,1-1.226.382.863.863,0,0,1-.187-1.275q2.217-3.549,4.458-7.082a.6.6,0,0,0-.034-.823c-1.473-1.965-2.917-3.953-4.379-5.926a.836.836,0,0,1-.125-1.027A3.236,3.236,0,0,1,3300.322-808.7Z" transform="translate(-3273.488 821.176)" fill="#fff"/>
        <path id="Path_183505" data-name="Path 183505" d="M3210.737-779.717a.881.881,0,0,1-.816-1.412q1.105-2,2.223-4,2.11-3.774,4.223-7.547c.218-.391.507-.719.963-.565a1.354,1.354,0,0,1,.664.645.885.885,0,0,1-.124.675q-3.24,5.828-6.515,11.636A2.345,2.345,0,0,1,3210.737-779.717Z" transform="translate(-3193.787 807.479)" fill="#fff"/>
        <path id="Path_183506" data-name="Path 183506" d="M3098.664-889.29a.854.854,0,0,1-.878.813.832.832,0,0,1-.8-.888.832.832,0,0,1,.843-.786A.854.854,0,0,1,3098.664-889.29Z" transform="translate(-3093.633 893.517)" fill="#fff"/>
        <path id="Path_183507" data-name="Path 183507" d="M3128.672-889.31a.843.843,0,0,1-.859.833.832.832,0,0,1-.818-.869.83.83,0,0,1,.826-.805A.843.843,0,0,1,3128.672-889.31Z" transform="translate(-3120.282 893.517)" fill="#fff"/>
        <path id="Path_183508" data-name="Path 183508" d="M3157.811-888.478a.848.848,0,0,1-.809-.89.851.851,0,0,1,.86-.783.861.861,0,0,1,.811.89A.86.86,0,0,1,3157.811-888.478Z" transform="translate(-3146.932 893.517)" fill="#fff"/>
      </g>
    </g>
  </g>
</svg>
