<svg xmlns="http://www.w3.org/2000/svg" xmlns:xlink="http://www.w3.org/1999/xlink" width="67" height="67" viewBox="0 0 67 67">
  <defs>
    <linearGradient id="linear-gradient" x1="0.5" x2="0.5" y2="1" gradientUnits="objectBoundingBox">
      <stop offset="0" stop-color="#039be5"/>
      <stop offset="1" stop-color="#027fbc"/>
    </linearGradient>
    <clipPath id="clip-path">
      <rect id="Rectangle_37044" data-name="Rectangle 37044" width="42.063" height="46.334" fill="#fff"/>
    </clipPath>
  </defs>
  <g id="Group_142466" data-name="Group 142466" transform="translate(0.422 0.394)">
    <circle id="Ellipse_4868" data-name="Ellipse 4868" cx="33.5" cy="33.5" r="33.5" transform="translate(-0.422 -0.394)" fill="url(#linear-gradient)"/>
    <g id="Group_142365" data-name="Group 142365" transform="translate(12.032 9.78)">
      <g id="Group_141597" data-name="Group 141597" transform="translate(0 0)" clip-path="url(#clip-path)">
        <path id="Path_183339" data-name="Path 183339" d="M127.634,53.428a3.841,3.841,0,1,1,3.841-3.841,3.845,3.845,0,0,1-3.841,3.841m0-6.217a2.376,2.376,0,1,0,2.376,2.376,2.378,2.378,0,0,0-2.376-2.376" transform="translate(-106.517 -39.362)" fill="#fff"/>
        <path id="Path_183340" data-name="Path 183340" d="M120.016,209.533a2.365,2.365,0,0,1-.382-.031,2.392,2.392,0,0,1-1.941-2.38V190.4a.733.733,0,0,1,1.465,0v16.72a.929.929,0,0,0,.71.933.861.861,0,0,0,1.01-.848V195.1a1.493,1.493,0,1,1,2.986,0v12.023a.928.928,0,0,0,.71.933.861.861,0,0,0,1.01-.848v-1.337a.733.733,0,0,1,1.465,0v1.337a2.327,2.327,0,0,1-2.711,2.294,2.391,2.391,0,0,1-1.941-2.38V195.1c0-.031-.056-.031-.056,0v12.108a2.325,2.325,0,0,1-2.329,2.325" transform="translate(-101.269 -163.2)" fill="#fff"/>
        <path id="Path_183341" data-name="Path 183341" d="M174.984,217.236a.733.733,0,0,1-.733-.733V202.76a.733.733,0,1,1,1.465,0V216.5a.733.733,0,0,1-.733.733" transform="translate(-149.933 -173.832)" fill="#fff"/>
        <path id="Path_183342" data-name="Path 183342" d="M103.873,187.251a1.981,1.981,0,0,1-1.979-1.979v-4.534a.733.733,0,1,1,1.465,0v4.534a.514.514,0,0,0,.513.514.507.507,0,0,0,.238-.058.733.733,0,0,1,.681,1.3,1.985,1.985,0,0,1-.919.226" transform="translate(-87.674 -154.884)" fill="#fff"/>
        <path id="Path_183343" data-name="Path 183343" d="M115.274,106.1a.73.73,0,0,1-.514-.211,7.6,7.6,0,0,0-5.361-2.2h-.217a7.6,7.6,0,0,0-5.361,2.2.733.733,0,0,1-1.028-1.044,9.054,9.054,0,0,1,6.389-2.621h.217a9.053,9.053,0,0,1,6.389,2.621.733.733,0,0,1-.514,1.255" transform="translate(-88.259 -87.961)" fill="#fff"/>
        <path id="Path_183344" data-name="Path 183344" d="M177.243,218.192a1.985,1.985,0,0,1-.919-.226.733.733,0,0,1,.681-1.3.506.506,0,0,0,.237.058.514.514,0,0,0,.474-.314.733.733,0,0,1,1.35.571,1.976,1.976,0,0,1-1.823,1.208" transform="translate(-151.38 -185.825)" fill="#fff"/>
        <path id="Path_183345" data-name="Path 183345" d="M245.556,63.531a.733.733,0,1,1,0-1.465,1.9,1.9,0,1,0-.357-3.773.733.733,0,0,1-.273-1.44,3.369,3.369,0,1,1,.63,6.678" transform="translate(-210.232 -48.868)" fill="#fff"/>
        <path id="Path_183346" data-name="Path 183346" d="M221.911,272.785c-.074,0-.148,0-.222-.01a2.381,2.381,0,0,1-2.1-2.383v-6.478a.733.733,0,0,1,1.465,0v6.478a.9.9,0,0,0,.773.924.861.861,0,0,0,.947-.856v-6.135a.733.733,0,1,1,1.465,0v6.135a2.325,2.325,0,0,1-2.33,2.325" transform="translate(-188.944 -226.452)" fill="#fff"/>
        <path id="Path_183347" data-name="Path 183347" d="M255.638,242.049c-.074,0-.148,0-.222-.01a2.381,2.381,0,0,1-2.1-2.383v-9.734a.733.733,0,0,1,1.465,0v9.734a.905.905,0,0,0,.773.925.861.861,0,0,0,.947-.856V228.192a.733.733,0,1,1,1.465,0v11.532a2.325,2.325,0,0,1-2.33,2.325" transform="translate(-217.964 -195.715)" fill="#fff"/>
        <path id="Path_183348" data-name="Path 183348" d="M276.88,160.976a.733.733,0,0,1-.733-.733V149.223a.733.733,0,1,1,1.465,0v11.021a.733.733,0,0,1-.733.733" transform="translate(-237.608 -127.767)" fill="#fff"/>
        <path id="Path_183349" data-name="Path 183349" d="M283.042,223.969a.733.733,0,0,1-.733-.733v-1.082a.733.733,0,0,1,1.465,0v1.082a.733.733,0,0,1-.733.733" transform="translate(-242.91 -190.52)" fill="#fff"/>
        <path id="Path_183350" data-name="Path 183350" d="M252.343,122.444a1.985,1.985,0,0,1-.919-.226.733.733,0,1,1,.681-1.3.506.506,0,0,0,.237.058.514.514,0,0,0,.513-.514V109.878a2.672,2.672,0,0,0-.786-1.894,6.331,6.331,0,0,0-4.468-1.833h-.184a.733.733,0,0,1,0-1.465h.184a7.788,7.788,0,0,1,5.5,2.254,4.145,4.145,0,0,1,1.223,2.937v10.586a1.981,1.981,0,0,1-1.979,1.979" transform="translate(-212.259 -90.077)" fill="#fff"/>
        <path id="Path_183351" data-name="Path 183351" d="M79.251,223.969a.733.733,0,0,1-.733-.733v-1.082a.733.733,0,0,1,1.465,0v1.082a.733.733,0,0,1-.733.733" transform="translate(-67.56 -190.52)" fill="#fff"/>
        <path id="Path_183352" data-name="Path 183352" d="M73.057,239.925h-2.4a.733.733,0,0,1-.733-.733v-7.936a.733.733,0,0,1,.733-.733h2.4a.733.733,0,0,1,.733.733v7.936a.733.733,0,0,1-.733.733m-1.666-1.465h.933v-6.471h-.933Z" transform="translate(-60.167 -198.351)" fill="#fff"/>
        <path id="Path_183353" data-name="Path 183353" d="M28.4,63.526H28.35a3.368,3.368,0,0,1,.21-6.73.733.733,0,0,1,0,1.465,1.9,1.9,0,0,0-.12,3.8.733.733,0,0,1-.044,1.464" transform="translate(-21.675 -48.868)" fill="#fff"/>
        <path id="Path_183354" data-name="Path 183354" d="M22.828,174.1a2.367,2.367,0,0,1-.381-.031,2.391,2.391,0,0,1-1.941-2.38V159.667c0-.031-.055-.031-.055,0v12.108a2.327,2.327,0,0,1-2.711,2.294,2.391,2.391,0,0,1-1.94-2.38V149.223a.733.733,0,1,1,1.465,0V171.69a.928.928,0,0,0,.71.933.862.862,0,0,0,1.01-.848V159.667a1.493,1.493,0,1,1,2.986,0V171.69a.929.929,0,0,0,.71.933.861.861,0,0,0,1.01-.848v-1.452a.733.733,0,0,1,1.465,0v1.452a2.325,2.325,0,0,1-2.329,2.325" transform="translate(-13.594 -127.767)" fill="#fff"/>
        <path id="Path_183355" data-name="Path 183355" d="M73.088,169.165a.733.733,0,0,1-.733-.733v-9.971a.733.733,0,0,1,1.465,0v9.971a.733.733,0,0,1-.733.733" transform="translate(-62.257 -135.716)" fill="#fff"/>
        <path id="Path_183356" data-name="Path 183356" d="M1.979,122.444A1.981,1.981,0,0,1,0,120.465V109.878a4.144,4.144,0,0,1,1.224-2.937,7.787,7.787,0,0,1,5.5-2.254.733.733,0,1,1,0,1.465,6.331,6.331,0,0,0-4.468,1.833,2.671,2.671,0,0,0-.786,1.893v10.586a.514.514,0,0,0,.513.514.506.506,0,0,0,.237-.058.733.733,0,1,1,.681,1.3,1.985,1.985,0,0,1-.919.226" transform="translate(0 -90.077)" fill="#fff"/>
        <path id="Path_183357" data-name="Path 183357" d="M75.348,180.062a1.985,1.985,0,0,1-.919-.226.733.733,0,0,1,.681-1.3.506.506,0,0,0,.237.058.514.514,0,0,0,.514-.514v-5.7a.733.733,0,1,1,1.465,0v5.7a1.981,1.981,0,0,1-1.979,1.979" transform="translate(-63.705 -147.695)" fill="#fff"/>
        <path id="Path_183358" data-name="Path 183358" d="M183.374,170.6a3.244,3.244,0,0,1-.778-.095,3.2,3.2,0,0,1-1.988-1.462l-6.069-10.032a.733.733,0,0,1,1.254-.759l6.069,10.032a1.759,1.759,0,0,0,2.416.595l.013-.008a1.759,1.759,0,0,0,.586-2.411l-5.988-9.9a.733.733,0,1,1,1.254-.758l5.988,9.9a3.225,3.225,0,0,1-1.09,4.428l-.013.007a3.186,3.186,0,0,1-1.653.462" transform="translate(-150.089 -133.758)" fill="#fff"/>
        <path id="Path_183359" data-name="Path 183359" d="M68.8,26.187a13.172,13.172,0,0,1-3.151-.384A13.088,13.088,0,0,1,62,1.9,13.088,13.088,0,0,1,81.483,16.223,13.1,13.1,0,0,1,68.8,26.187M68.754,1.466A11.626,11.626,0,0,0,58.83,19.109,11.623,11.623,0,1,0,78.719,7.078a11.546,11.546,0,0,0-7.166-5.27,11.7,11.7,0,0,0-2.8-.341m.038,22.013a10.452,10.452,0,0,1-2.5-.3A10.381,10.381,0,0,1,63.4,4.212,10.381,10.381,0,1,1,74.147,21.975a10.311,10.311,0,0,1-5.355,1.5M68.759,4.174a8.918,8.918,0,0,0-2.116,17.578,8.852,8.852,0,0,0,6.745-1.03h0A8.916,8.916,0,0,0,70.906,4.435a8.982,8.982,0,0,0-2.147-.262" transform="translate(-47.91 0)" fill="#fff"/>
        <path id="Path_183360" data-name="Path 183360" d="M222.837,153.527a.733.733,0,0,1-.733-.733v-1.411a.733.733,0,1,1,1.465,0v1.411a.733.733,0,0,1-.733.733" transform="translate(-191.107 -129.625)" fill="#fff"/>
      </g>
    </g>
  </g>
</svg>
